<svg version="1.1" id="Layer_1" xmlns:x="ns_extend;" xmlns:i="ns_ai;" xmlns:graph="ns_graphs;" xmlns="http://www.w3.org/2000/svg" xmlns:xlink="http://www.w3.org/1999/xlink" x="0px" y="0px" viewBox="0 0 535.9 65" style="enable-background:new 0 0 535.9 65;" xml:space="preserve">
 <style type="text/css">
  .st0{fill-rule:evenodd;clip-rule:evenodd;fill:#222B5E;}
	.st1{fill-rule:evenodd;clip-rule:evenodd;fill:#B11212;}
 </style>
 <metadata>
  <sfw xmlns="ns_sfw;">
   <slices>
   </slices>
   <sliceSourceBounds bottomLeftOrigin="true" height="65" width="535.9" x="-257.6" y="-208.5">
   </sliceSourceBounds>
  </sfw>
 </metadata>
 <g>
  <path class="st0" d="M158.9,18.7v26.2c0,3.5,0.7,6.1,2.2,7.9c1.5,1.8,3.7,2.7,6.6,2.7c2.9,0,5.1-0.9,6.6-2.7c1.4-1.6,2.1-4,2.2-7
		l0-0.9V18.7h11v26.9c0,5.9-1.8,10.6-5.5,14.1c-3.7,3.5-8.5,5.3-14.4,5.3c-5.9,0-10.7-1.8-14.4-5.3c-3.4-3.3-5.3-7.7-5.5-13l0-1
		V18.7C147.9,18.7,158.9,18.7,158.9,18.7z M251.1,16.3c6.7,0,12.3,2.2,16.9,6.5c4.3,4.1,6.5,9.4,6.8,15.9l0,1.1v1.7
		c0,6.9-2.3,12.5-6.8,16.9c-4.5,4.4-10.1,6.6-16.9,6.6c-6.7,0-12.3-2.2-16.7-6.5c-4.2-4.1-6.4-9.4-6.6-15.8l0-1.1v-1.7
		c0-7,2.2-12.6,6.6-17S244.4,16.3,251.1,16.3z M479.6,16.3c6.4,0,11.7,2.1,15.8,6.4c4.1,4.3,6.1,9.8,6.1,16.7c0,0.7,0,1.4,0,2.2
		l-0.1,1.2l-0.1,1.3h-33.2c0.5,3.7,1.8,6.6,3.8,8.7c2.1,2.1,4.8,3.1,8.1,3.1c2.6,0,4.7-0.5,6.3-1.4c1-0.6,1.8-1.3,2.5-2.2l0.4-0.6
		h11.2c-1.3,4-3.6,7.1-6.9,9.4c-3.7,2.6-8.4,3.8-13.9,3.8c-6.5,0-12-2.2-16.4-6.7c-4.1-4.2-6.3-9.5-6.5-15.7l0-1.1V40
		c0-6.8,2.2-12.4,6.5-16.9C467.7,18.6,473.1,16.3,479.6,16.3z M449.4,0v63.5h-8.5l-1.6-5.1h-0.2c-1.7,2.2-3.9,3.9-6.5,5
		c-2.5,1.1-5.5,1.6-8.9,1.6c-5.9,0-11-2.2-15.2-6.6c-4-4.1-6.1-9.3-6.3-15.4l0-1.2v-1.7c0-7,2.1-12.7,6.3-17.1
		c4.2-4.4,9.6-6.6,16.2-6.6c3.1,0,5.7,0.4,7.8,1.2c1.9,0.7,3.6,1.8,5,3.2l0.6,0.6h0.2V0H449.4z M370.2,16.3c3,0,5.7,0.6,8.2,1.6
		c2.2,1,4.2,2.4,6.1,4.2l0.8,0.8h0.2l1.8-5.3h8.1v45.8h-8.6l-1.7-5.5h-0.2c-1.6,2.2-3.7,4-6.2,5.1c-2.6,1.2-5.5,1.7-8.8,1.7
		c-6,0-11-2.2-15.2-6.5c-3.9-4.1-5.9-9.2-6.2-15.5l0-1.2v-1.6c0-6.8,2-12.5,6.1-17C358.8,18.6,363.9,16.3,370.2,16.3z M210.6,6.1
		v10.4h11.6v8.6h-11.6V50c0,1.7,0.4,3,1.2,3.8c0.8,0.9,2.1,1.3,3.8,1.3c1.1,0,2.2-0.2,3.2-0.5c0.8-0.3,1.7-0.7,2.6-1.2l0.7-0.4h1.6
		v9.1c-1.1,0.6-2.6,1.1-4.5,1.6c-1.9,0.5-3.5,0.7-4.8,0.7c-4.9,0-8.7-1.3-11.2-3.9c-2.3-2.4-3.6-5.9-3.7-10.5l0-1V25.1h-6.2v-5
		c2.9-1.4,5.4-3.2,7.3-5.3c1.7-1.9,3.3-4.4,4.7-7.4l0.5-1.2H210.6L210.6,6.1z M315.7,2.8v10h-16.9v50.8h-11.5V12.7h-17.6v-10H315.7z
		 M340.8,17.3c1.1,0,2.2,0.1,3.4,0.2l0.3,0v10.9h-4.1c-4.1,0-7,0.9-8.8,2.7c-1.7,1.7-2.6,4.8-2.7,9.4l0,1v21.9h-11.1V17.7h7.9
		l2.4,8.8h0.2c0.5-2.7,2.1-5.1,4.4-6.7C334.9,18.2,337.7,17.3,340.8,17.3L340.8,17.3z M532.2,17.3c1.1,0,2.2,0.1,3.4,0.2l0.3,0v10.9
		h-4.1c-4.1,0-7,0.9-8.8,2.7c-1.7,1.7-2.6,4.8-2.7,9.4l0,1v21.9h-11.1V17.7h7.9l2.4,8.8h0.2c0.5-2.7,2.1-5.1,4.4-6.7
		C526.3,18.2,529,17.3,532.2,17.3L532.2,17.3z M120.9,4l23.5,58.1v1.5h-11.8l-4.6-12.1l-1-2.6h-24.7l-1,2.6l-4.6,12.1H85.3v-1.5
		L108.8,4L120.9,4L120.9,4z M75.4,38.8l-5.4,13.5c-2.8,6.5-8.9,11.2-16.1,11.3L0,63.5l10-24.7C10,38.8,75.4,38.8,75.4,38.8z
		 M372,25.3c-4,0-7.1,1.4-9.3,4.1c-2.2,2.7-3.3,6.5-3.3,11.2c0,4.7,1.1,8.4,3.3,11.1c2.2,2.7,5.3,4.1,9.3,4.1c3.9,0,7-1.4,9.2-4.1
		c2.2-2.7,3.3-6.4,3.3-11.1c0-4.7-1.1-8.4-3.3-11.2C379,26.7,375.9,25.3,372,25.3z M425.9,25.3c-4,0-7.1,1.4-9.3,4.1
		c-2.2,2.7-3.3,6.5-3.3,11.2c0,4.7,1.1,8.4,3.3,11.1c2.2,2.7,5.3,4.1,9.3,4.1c3.9,0,7-1.4,9.2-4.1c2.2-2.7,3.3-6.4,3.3-11.1
		c0-4.7-1.1-8.4-3.3-11.2C432.9,26.7,429.8,25.3,425.9,25.3z M251.2,25.5c-3.8,0-6.9,1.4-9,4.1c-2.2,2.7-3.3,6.4-3.3,11
		s1.1,8.3,3.3,11c2.2,2.7,5.2,4.1,9,4.1c3.8,0,6.9-1.4,9.1-4.1c2.2-2.7,3.3-6.4,3.3-11s-1.1-8.3-3.3-11
		C258.1,26.9,255.1,25.5,251.2,25.5z M114.7,15.3h-0.2c-0.2,1-0.6,2.2-1,3.4c-0.4,1.1-1,2.7-1.8,4.9l-0.3,0.8L106,38.8h17.2
		l-5.4-14.4c-0.8-2.3-1.6-4.5-2.4-6.8C115.2,16.9,114.9,16.1,114.7,15.3L114.7,15.3z M479.9,25.4c-3.1,0-5.5,0.8-7.5,2.5
		c-1.7,1.5-3,3.7-3.8,6.6l-0.2,0.9h21.7c-0.2-3.1-1.2-5.6-3-7.3C485.3,26.3,482.9,25.4,479.9,25.4L479.9,25.4z">
  </path>
  <path class="st1" d="M89.4,4L35.6,4c-7.2,0.1-13.3,4.7-16.1,11.3l-5.4,13.5h65.4C79.4,28.7,89.4,4,89.4,4z">
  </path>
 </g>
</svg>